<?xml version="1.0" standalone="no"?>
<!DOCTYPE svg PUBLIC "-//W3C//DTD SVG 20010904//EN"
 "http://www.w3.org/TR/2001/REC-SVG-20010904/DTD/svg10.dtd">
<svg version="1.0" xmlns="http://www.w3.org/2000/svg"
 width="1280.000000pt" height="462.000000pt" viewBox="0 0 1280.000000 462.000000"
 preserveAspectRatio="xMidYMid meet">
<metadata>
Created by potrace 1.15, written by Peter Selinger 2001-2017
</metadata>
<g transform="translate(0.000000,462.000000) scale(0.100000,-0.100000)"
fill="#000000" stroke="none">
<path d="M2015 4613 c-188 -26 -367 -124 -521 -285 -106 -111 -185 -227 -260
-381 -103 -212 -98 -170 -102 -819 l-3 -568 -59 0 c-60 0 -60 0 -60 30 l0 30
-60 0 -60 0 0 -535 0 -535 -68 0 c-83 0 -112 -16 -112 -64 0 -61 14 -65 226
-68 l189 -3 3 -162 2 -163 -188 0 c-213 0 -232 -5 -232 -64 0 -61 14 -65 226
-68 l189 -3 3 -189 c2 -159 5 -193 19 -208 22 -24 58 -23 83 4 19 20 20 34 20
210 l0 188 245 0 245 0 -45 -56 c-97 -119 -141 -250 -132 -394 9 -132 56 -246
139 -335 21 -23 38 -45 38 -48 0 -4 -383 -7 -852 -7 -776 0 -853 -2 -870 -17
-22 -20 -23 -51 -2 -81 l15 -22 6369 0 6369 0 15 22 c21 30 20 61 -2 81 -17
16 -85 17 -776 17 l-757 0 46 57 c177 217 177 524 -1 721 -24 28 -44 53 -44
56 0 3 110 6 245 6 l245 0 0 -190 c0 -177 1 -191 20 -210 25 -25 62 -26 83 -2
14 15 17 49 19 208 l3 189 160 3 c130 2 162 5 177 19 22 19 23 62 4 89 -13 17
-30 19 -180 22 l-166 3 0 165 0 164 163 0 c146 0 166 2 180 18 42 47 5 112
-63 112 l-40 0 0 530 0 530 -60 0 -60 0 0 -30 0 -30 -60 0 -60 0 0 613 c0 580
-1 618 -20 692 -96 374 -490 678 -973 749 -93 14 -573 16 -4463 15 -2398 -1
-4372 -4 -4389 -6z m8513 -1385 l-3 -23 -397 -3 -398 -2 0 25 0 25 401 0 400
0 -3 -22z m-7228 -18 l0 -30 -395 0 -395 0 0 30 0 30 395 0 395 0 0 -30z
m1768 18 c7 -7 12 -20 12 -30 0 -17 -21 -18 -400 -18 l-400 0 0 23 c0 13 3 27
7 30 3 4 178 7 388 7 283 0 384 -3 393 -12z m3700 -15 l-3 -28 -397 -3 -398
-2 0 30 0 30 401 0 400 0 -3 -27z m1760 -120 l3 -23 -400 0 -401 0 0 25 0 25
398 -2 397 -3 3 -22z m-7228 -33 l0 -30 -395 0 -395 0 0 30 0 30 395 0 395 0
0 -30z m1775 0 l0 -25 -395 0 -395 0 -3 28 -3 27 398 -2 398 -3 0 -25z m3693
3 l-3 -28 -397 -3 -398 -2 0 30 0 30 401 0 400 0 -3 -27z m-7638 -1068 l0
-435 -60 0 -60 0 0 435 0 435 60 0 60 0 0 -435z m10850 -10 l0 -435 -60 0 -60
0 0 435 0 435 60 0 60 0 0 -435z m-7736 -1565 c21 -96 58 -170 117 -234 27
-30 49 -56 49 -60 0 -3 -445 -6 -990 -6 -545 0 -990 2 -990 5 0 3 21 31 47 63
57 70 100 160 115 241 l12 61 812 0 812 0 16 -70z m3515 8 c17 -85 62 -174
122 -241 27 -30 49 -58 49 -61 0 -3 -646 -6 -1435 -6 -789 0 -1435 3 -1435 6
0 3 21 29 46 58 55 60 109 168 126 248 l12 58 1251 0 1251 0 13 -62z m2631 36
c0 -73 82 -246 144 -303 14 -14 26 -28 26 -33 0 -4 -448 -8 -995 -8 -547 0
-995 2 -995 3 0 2 20 26 45 53 56 59 121 186 131 251 3 27 8 51 11 56 2 4 371
7 819 7 l814 0 0 -26z"/>
</g>
</svg>
